<svg data-data-id="planview" xmlns="http://www.w3.org/2000/svg" width="100%" height="100%" preserveAspectRatio="xMidYMin meet" xmlns:xlink="http://www.w3.org/1999/xlink" viewBox="-81567 -121608 140506 160491" style="cursor: grab;">

  <path data-id="spa-f3d60d56-f96f-43ca-9cd0-8f8bb6e04a35" d="M15909-42920l3552 680l136 26l1578-8251l-136-26l-3553-679z" data-description="3" id="DV.06.03" data-area="31,5" data-hasqtip="5506" style="fill: rgb(165, 166, 234);"></path>

  <path data-id="spa-d58a2bc0-1225-44c2-91d2-2bc2d143b3b0" d="M-33399-42538v-5948h-660v160h-1387h-2520h-7985l-130 20h5371h103h1173h5675v2999v303v2466h125z" data-description="-" id="ES.06.07" data-area="2,39" data-hasqtip="5507"></path>

  <path data-id="spa-d5106714-dc23-4d87-8697-fdd22e9f2de0" d="M24777-104959h3260l590 3068l-3835-120z" data-description="4" id="CK.06.03" data-area="10,6" data-hasqtip="5508" style="fill: rgb(194, 60, 183);"></path>

  <path data-id="spa-62ebc821-afa8-48ed-8da5-8bcee820ca77" d="M-30874-101791v-275h-5110v275h2875h75z" data-description="-" id="BS.06.07" data-area="1,28" data-hasqtip="5509"></path>

  <path data-id="spa-b611bcf6-d3a6-4359-a998-f244dea28a51" d="M-31461-109419v-1230h-973v1230z" data-description="3" id="BO.06.11" data-area="1,18" style="fill: rgb(165, 166, 234);" data-hasqtip="5510"></path>

  <path data-id="spa-5593718d-a6b0-4531-9415-d569f628d984" d="M17555-106403h960v-1278h1879v2707v1000h-2840z" data-description="3" id="CO.06.01" data-area="9,30" style="fill: rgb(165, 166, 234);" data-hasqtip="5511"></path>

  <path data-id="spa-6ce275f2-e25d-4128-b935-089fb77a2631" d="M-44359-66096l-150-20v-2800v-150h0v-3900v-150v-2950v-60l15-2l-17-139l-16 2l26 16l-20-2l-26-12l-1672 200v9967" data-description="3" id="EH.06.04" data-area="17,2" data-hasqtip="5512" style="fill: rgb(165, 166, 234);"></path>

  <path data-id="spa-c396bd7f-813f-4ab3-9035-a6d465baac72" d="M30332-92342l-501-2602l-680 130l-28 2l-1235 237l-56 11l1 4l-604 116l38 198l462 2404z" data-description="3" id="CL.06.02" data-area="7,03" data-hasqtip="5513" style="fill: rgb(165, 166, 234);"></path>

  <path data-id="spa-008b137d-e8b4-4786-8c4c-9d7e7932eaa9" d="M-34436-90344v-4000h-2110v2803h312v450h-312v747z" data-description="3" id="BK.06.03" data-area="8,30" data-hasqtip="5514" style="fill: rgb(165, 166, 234);"></path>

  <path data-id="spa-79ef7e10-ab80-4f34-b999-806c45284c0b" d="M24905-70002l5550 1061l1080 207l1061 203l167 32l-511 2670l-52 276l-6435-1230l-227-44l-1045-199l-151-29z" data-description="3" id="DV.06.01" data-area="24,0" data-hasqtip="5515" style="fill: rgb(165, 166, 234);"></path>

  <path data-id="spa-2a5e6e69-0f84-442e-8e9d-8b7ffcb2dd38" d="M20562-107946h1000h1522v980v999v999v980h-2522z" data-description="3" id="CO.06.05" data-area="9,58" style="fill: rgb(165, 166, 234);" data-hasqtip="5516"></path>

  <path data-id="spa-83060c3e-f544-4290-8470-e9597b6c713c" d="M25320-63561l60 11l1701 325l1437 275l563-2942l-3198-612z" data-description="4" id="DK.06.06" data-area="9,76" data-hasqtip="5517" style="fill: rgb(194, 60, 183);"></path>

  <path data-id="spa-b7d9c595-b2e6-4f0a-a9b2-355ce499fe2f" d="M15138-33764l1930 369l788-4120l-1930-369z" data-description="3" id="DK.06.03" data-area="8,24" data-hasqtip="5518" style="fill: rgb(165, 166, 234);"></path>

  <path data-id="spa-0343505b-cb4d-4734-bd01-d28b2df7d20a" d="M31507-69198l1174 225h0l167 32l389-2038l-1340-257l-1 2l-93 489l-14 74l-1 2z" data-description="3" id="DH.06.01" data-area="2,78" data-hasqtip="5519" style="fill: rgb(165, 166, 234);"></path>

  <path data-id="spa-7b162a45-7401-4137-b199-82601c07a855" d="M-37578-53071v-1093h-1318v1093z" data-description="3" id="EO.06.08" data-area="1,44" style="fill: rgb(165, 166, 234);" data-hasqtip="5520" class=""></path>

  <path data-id="spa-36106321-9c4b-4839-9d83-7058e86ef09a" d="M-37384-62131h-144v25h-1458v-25h-148v-3835h800h950z" data-description="-" id="ET.06.04" data-area="6,76" data-hasqtip="5521"></path>

  <path data-id="spa-03f505dd-4135-4384-98d3-e6f73db0045c" d="M16512-106055h625v2100h-625z" data-description="-" id="CS.06.06" data-area="1,63" data-hasqtip="5522"></path>

  <path data-id="spa-1f24988b-287a-40bc-9f8d-e925cfe14779" d="M22230-90784l2553-491l13-2l221-43l12-2l2553-491l-17-89l-446-2317l-2553 491l-12 2l-221 43l-12 2l-1920 369l-634 122z" data-description="3" id="CL.06.01" data-area="13,4" style="fill: rgb(165, 166, 234);" data-hasqtip="5523"></path>

  <path data-id="spa-3e4b939c-67f4-491e-a25b-72ea9ba27f37" d="M30613-69369l746 143l282-1473l-746-143l-71 368z" data-description="-" id="DT.06.01" data-area="1,14" data-hasqtip="5524"></path>

  <path data-id="spa-4b4b9805-0d03-4349-803f-66069996892e" d="M15736-22840l16094 1280l5645-29519l-180-385l-3797-8117l1105-5796l-136-26l-1920-370l-76 399l-38 195l-9 50l-188 982l-9 49l-386 2015l-173 907v1l-27 138l-3697-707l-257 1340l3698 708l-777 4061l-8147-1558l-964 5041l-26 135l-26 135l-245 1282l-29 155l-22 115l-1526 7980l-25 128l-27 143l-238 1244h0l-1486 7770l-150-29l-1653 8648l77 14l-34 440l-129-10zm6289-679l449 35l34-449l-449-34zm8458 222l449 34l-34 449l-449-34zm1607-8272l442 85l-85 442l-442-85zm-7809-1493l-442-84l-84 442l442 84zm1578-8250l-442-85l-85 442l442 85zm7808 1493l442 84l-84 442l-442-84zm1578-8251l442 85l-85 442l-442-85zm-7809-1493l-442-84l-84 442l442 84z" data-description="3" id="DK.06.02" data-area="572" style="fill: rgb(165, 166, 234);" data-hasqtip="5525"></path>

  <path data-id="spa-727be286-d661-4583-ab0b-7b595179adf3" d="M16169-61537l-79-290l-553 152l-119-434l553-152l-1981-7213l-3857 1059l2179 7937z" data-description="3" id="DK.06.08" data-area="32,7" style="fill: rgb(165, 166, 234);" data-hasqtip="5526"></path>

  <path data-id="spa-ea2eaf38-e39f-4328-b280-16d4f9f57bd6" d="M14485-33876l515 98l793-4144l-427-82l-89-17l-24 125l-56 292l-2 13l-326 1704l-2 12l-54 280l-2 12l-296 1550l-3 12z" data-description="-" id="DS.06.08" data-area="2,22" data-hasqtip="5527"></path>

  <path data-id="spa-0076a62f-968f-47c4-855c-78ab09a1710f" d="M-34976-54326v-138v-62v-2v-598h-3113v800h1558z" data-description="-" id="ES.06.03" data-area="2,28" data-hasqtip="5528"></path>

  <path data-id="spa-67b9414a-2178-4805-af86-a296d60169a4" d="M20647-102019l142 4v-298h1060v339l6977 219l621 3231l-2145-67l-184-6h-3l-6569-206" data-description="3" id="CV.06.01" data-area="27,8" data-hasqtip="5529" style="fill: rgb(165, 166, 234);"></path>

  <path data-id="spa-89fbaea2-d282-47a6-849e-532634a4b385" d="M8080-38693l68 6l3572 284l3114 248l161 13l623-3260l14-69l281-1473l1566-8187l278-1456l26-135l26-135l1424-7448l-15889 4362z" data-description="vide" id="GI.06.01" data-area="225" data-hasqtip="5530"></path>

  <path data-id="spa-2d881110-97fd-405f-b73d-a5a002689ccc" d="M20843-97147l648 49l150 12l128 10l13 66l651 3387l-88 17l9 49l-632 122h-2l-16-17l-145 27z" data-description="-" id="CS.06.02" data-area="3,27" data-hasqtip="5531"></path>

  <path data-id="spa-eeb8a97f-6e77-4291-9d00-1372e2881244" d="M33498-59581l1079-5661l25-130h3l739-3833l62-322l4-23l1-1l80 417l-84 438l130-202l2680 13937l-742 3882zm3767 3345l-442-84l-85 442l442 84z" data-description="3" id="DI.06.01" data-area="38,6" data-hasqtip="5532" style="fill: rgb(165, 166, 234);"></path>

  <path data-id="spa-906e9031-8f50-437e-a294-9013bdfe5792" d="M-30899-103566v-2300h-600v2300z" data-description="-" id="BS.06.05" data-area="1,35" data-hasqtip="5533"></path>

  <path data-id="spa-5df1a8aa-2f0a-4e91-8fb6-30253b61e392" d="M-39099-76066h-360v-150h-425v-462l785-94z" data-description="-" id="ET.06.03" data-area="0,43" data-hasqtip="5534"></path>

  <path data-id="spa-7c4f960a-8533-4793-9dbf-dde05d13d9c8" d="M22653-86995l8691-1672l-661-3437l-8691 1672z" data-description="3" id="CH.06.01" data-area="31,0" style="fill: rgb(165, 166, 234);" data-hasqtip="5535"></path>

  <path data-id="spa-c95b7e81-cd8a-4fb7-b95a-a20dcfea93b4" d="M-33486-51926v-360h-1033v-175h1033v-1453h-3120v-250h-932v1113v1111v2v6v6h3329z" data-description="3" id="EO.06.06" data-area="14,8" style="fill: rgb(165, 166, 234);" data-hasqtip="5536"></path>

  <path data-id="spa-2a0af228-242e-4768-be1b-fb35bf71a665" d="M-34106-102204h-900v-1230h900z" data-description="3" id="BO.06.03" data-area="1,11" style="fill: rgb(165, 166, 234);" data-hasqtip="5537"></path>

  <path data-id="spa-79dd22b3-3c19-47e4-bd7f-ed79a1c8d633" d="M-34634-85596h-1935v-2390h640v-550h285v-155h1010z" data-description="3" id="BH.06.01" data-area="5,34" style="fill: rgb(165, 166, 234);" data-hasqtip="5538"></path>

  <path data-id="spa-8e43c340-a7c8-4e87-bd87-3de2310c9fda" d="M-34771-64304v-1650h-2200v1650z" data-description="3" id="EO.06.01" data-area="3,63" data-hasqtip="5539" style="fill: rgb(165, 166, 234);"></path>

  <path data-id="spa-dc0a7d76-2c49-4679-a3ef-25bfe6c727f2" d="M-32299-76066v-1518l-2500 298v1220h2239z" data-description="-" id="ES.06.04" data-area="2,97" data-hasqtip="5540"></path>

  <path data-id="spa-48f5f0fe-e685-4064-92bd-282dc2e384ce" d="M-2762-25817l-67-6l5-55l-7003-558l-1502-5471l-1769-2904l-4845-17647l-8695 2388l-101 27v105v7305h-6520v-5985v-8h-800h0h-1387v-1430v-145h2197v-5090h-10525v1140h-145h-2300v-4274h1136h450h8113h351h3892h138v-138v-2583v-832h-20v-2328h-2435v-1660h2435v-150v-2800v-150v-35l3239-889l89-25l12 42l11949-3288l457-125l43-12l10789 30l8740-2399l137 498l-188 51l119 434l188-51l1866 6798l-188 52l120 434l188-52l87 320l12 42l-3065 841l-16 5h0l-1936 531l23 84l-7 2h-2l-4975 1366l1098 3990l1074 3905l5108-1402l49 181l493 1795l4736 17250l-113 42l38 138l1053 3835l2346 422l2611 470l1686 303l-1 7l1997 382l-1653 8648l-371-29l-35 449l303 23l17 1l-193 1011l-29 151l-3311-264l-151-12l-13373-1064zm2115 43l448 34l-34 449l-448-34zm-1565-5360l434-119l119 434l-434 119zm-7546 2538l-434 119l-120-434l434-119zm-2343-8534l-434 119l119 434l434-119zm7666-2105l434-119l119 434l-434 119zm8100-2224l434-119l119 434l-434 119zm2343 8535l434-120l-119-433l-434 119zm2217 8310l449 34l34-449l-448-34zm-6664-24511l434-119l-120-434l-434 119zm-7667 2103l-434 119l-119-434l433-119zm-8219 1792l-434 119l119 434l434-119zm-2225-8103l-434 120l119 433l434-119zm7667-2104l434-119l119 433l-434 120zm-2224-8101l434-119l119 434l-434 119zm-1986-7232l434-119l119 434l-434 119zm-7666 2105l-434 119l119 434l434-119zm1985 7232l120 434l-434 119l-119-434zm-9510 2561v450h450v-450zm449-7780h-450v450h450zm-449 16491v450h450v-450zm25277-15600l434-120l119 434l-434 119zm-1866-6799l434-119l-120-434l-434 119z" data-description="3" id="EK.06.01" data-area="1477" style="fill: rgb(165, 166, 234);" data-hasqtip="5541" class=""></path>

  <path data-id="spa-d29e6624-592c-43ae-87f1-ac3be78324d9" d="M7953-38703l3767 300l-316 4147l-2346-422z" data-description="3" id="EK.06.08" data-area="12,3" style="fill: rgb(165, 166, 234);" data-hasqtip="5542"></path>

  <path data-id="spa-c026140d-e38e-4a28-b91c-b334ba5aa884" d="M-30971-102204v-1200h-690v-2025h-4285v1000v955h1h919h940h960v1270z" data-description="3" id="BO.06.01" data-area="10,7" style="fill: rgb(165, 166, 234);" data-hasqtip="5543"></path>

  <path data-id="spa-34b3d7b7-63ba-4913-99f9-174c27a9591d" d="M27351-56500l2087 399l982 188l699-3654l-3069-587l-173 904l-177 923l-176 924zm1137-956l442 85l84-442l-442-85z" data-description="3" id="DO.06.01" data-area="11,4" style="fill: rgb(165, 166, 234);" data-hasqtip="5544"></path>

  <path data-id="spa-3bd2b059-8d04-4fb1-8836-be20b29a82cc" d="M-33166-102204h-900v-1230h900z" data-description="3" id="BO.06.02" data-area="1,11" style="fill: rgb(165, 166, 234);" data-hasqtip="5545"></path>

  <path data-id="spa-a41f699a-02f9-438e-9c90-0a2cc823488a" d="M-35741-62119v-985h-1230v985z" data-description="3" id="EO.06.04" data-area="1,16" style="fill: rgb(165, 166, 234);" data-hasqtip="5546"></path>

  <path data-id="spa-4db7f758-092c-4f82-aadc-19afdba7a967" d="M27121-98602l2154 68l172 5l622 3233l-1002 193v-4l-1228 236z" data-description="3" id="CH.06.02" data-area="8,05" data-hasqtip="5547" style="fill: rgb(165, 166, 234);"></path>

  <path data-id="spa-f3727277-8e7c-42d9-8635-7856fdc05f5c" d="M22439-57439l983 188l958 183l191-1002l1248 239l375-1960l-1428-273l-197 1032l-172-33l197-1032l-1588-303z" data-description="3" id="DO.06.06" data-area="8,31" style="fill: rgb(165, 166, 234);" data-hasqtip="5548"></path>

  <path data-id="spa-a9486a2c-f4a4-49f5-9889-6838d56c275e" d="M28010-105128l-434-2253l-616 119v2140z" data-description="-" id="CS.06.07" data-area="2,12" data-hasqtip="5549"></path>

  <path data-id="spa-0ad76ab5-757e-4624-9c60-6f60a9300b1f" d="M-37359-76066v-914l-1590 190v724h489h253z" data-description="-" id="ET.06.02" data-area="1,26" data-hasqtip="5550"></path>

  <path data-id="spa-2cbf4701-1dbd-4af4-887a-5eb56d1a8e3d" d="M-40009-76216h-1325h-750h-1250h-393v-4l3718-444z" data-description="-" id="ES.06.06" data-area="0,75" data-hasqtip="5551"></path>

  <path data-id="spa-db2ab519-6e2c-4d51-958f-69f3621f85f1" d="M-30889-82471v-2970h-5655v2300h310v450h-310v220z" data-description="3" id="BK.06.02" data-area="16,7" data-hasqtip="5552" style="fill: rgb(165, 166, 234);"></path>

  <path data-id="spa-7399a53a-78ee-4ac3-8ffc-455f1efe1637" d="M23731-63863l1425 272l563-2946l-228-44l-1045-200l-151-29l-338 1768l-199 1041z" data-description="3" id="DH.06.02" data-area="4,35" data-hasqtip="5553" style="fill: rgb(165, 166, 234);"></path>

  <path data-id="spa-1a676a8f-b266-4154-b068-d3dcd7e89286" d="M-32299-61431v-2735h-550v2185h-3909v550z" data-description="-" id="ES.06.08" data-area="3,64" data-hasqtip="5554"></path>

  <path data-id="spa-070c7057-e41e-4626-acc5-1beabf089442" d="M-16870-73261l457-125l-8-32l6943-1907l6353-1728l4 10l24277-6680l99-27l-385-1997l-1808-9384h-13411l-5458 4936l-1560-1746l4365-3902l-1837-484h-14778h0h-19h-353h-941h-11729v17763l-2160 258v7968v105l1667-458l10272-2820z" data-description="vide" id="FI.06.01" data-area="881" data-hasqtip="5555" class="" aria-describedby="qtip-5555"></path>

  <path data-id="spa-c75c40ac-4604-4eb7-9383-9c00cb783eed" d="M-5581-73368l8607-2363l266-73l18559-5095l-552-2863l-24420 6719l-6349 1746h0l-6900 1899z" data-description="3" id="FK.06.01" data-area="97,8" data-hasqtip="5556" style="fill: rgb(165, 166, 234);"></path>

  <path data-id="spa-655cb29c-5293-4db0-81b0-e3e2f332bd04" d="M22176-103823h2200v1782l-1198-37l4-125l-1007-32z" data-description="3" id="CO.06.10" data-area="3,87" data-hasqtip="5557" style="fill: rgb(165, 166, 234);"></path>

  <path data-id="spa-18ff0f94-afd8-4253-91f2-562b690caa43" d="M27592-61954l17-89l114-599l-727-139l-131 688z" data-description="-" id="DS.06.05" data-area="0,50" data-hasqtip="5558"></path>

  <path data-id="spa-d6c9fbbe-ad69-4e66-86ea-cf742e13c76a" d="M-33414-54526v-600h-1412v600z" data-description="-" id="ET.06.01" data-area="1,06" data-hasqtip="5559"></path>

  <path data-id="spa-240bff19-5762-4055-babb-ae19adb02d4b" d="M-32159-69066v-35v-165v-3700h-1250h-1250h-1450h-1250h-975h-975h-1250h-1525h-1250h-1175v3900h1250h1250h1450h1250h849h253h848h1250h1450h1250h849z" data-description="3" id="EH.06.03" data-area="48,2" style="fill: rgb(165, 166, 234);" data-hasqtip="5560"></path>

  <path data-id="spa-c6b5fcaa-b81d-4cad-aca2-7b537cd29b1d" d="M-32559-66266v-2500h-850h-1250h-1450h-1250h-850v1v2499h824h2793z" data-description="3" id="EL.06.03" data-area="14,1" style="fill: rgb(165, 166, 234);" data-hasqtip="5561"></path>

  <path data-id="spa-636ef18a-43b9-4d11-b27b-123cc4b2014c" d="M-32559-73266v-2500h-2238h-128h-2282h-153h-849v2500h850h1250h1450h1250z" data-description="3" id="EL.06.02" data-area="14,1" style="fill: rgb(165, 166, 234);" data-hasqtip="5562"></path>

  <path data-id="spa-71793fc8-0928-4006-a3dd-7e79f4e4ee95" d="M23139-105002v-959h1230v960z" data-description="3" id="CO.06.08" data-area="1,13" style="fill: rgb(165, 166, 234);" data-hasqtip="5563"></path>

  <path data-id="spa-c50af657-d52e-4caf-9500-4d324ea0b81d" d="M21150-98649l1065 33l-4 125l450 14l4-125l3569 113l281 1460l-4594-144l-107-4l-14 103h-3l6-193l-150-5l-6 186l-199-15z" data-description="-" id="CS.06.04" data-area="6,88" data-hasqtip="5564"></path>

  <path data-id="spa-bf77b27c-2a80-40ee-bfe9-3086c1721198" d="M-40811-51928v-3196h-2796v3196z" data-description="4" id="EK.06.02" data-area="8,94" data-hasqtip="5565" style="fill: rgb(194, 60, 183);"></path>

  <path data-id="spa-aee87b2a-8752-466b-903f-8a45c3c14e3c" d="M11404-34256l2753 495l838-4381l-3275-261z" data-description="3" id="EK.06.07" data-area="13,1" style="fill: rgb(165, 166, 234);" data-hasqtip="5566"></path>

  <path data-id="spa-4b44d8ed-6193-49c3-84b0-0d0f240e4067" d="M16551-98650v-3476h3978l-109 3469z" data-description="-" id="CS.06.05" data-area="13,6" data-hasqtip="5567"></path>

  <path data-id="spa-790e61b6-5e6e-4983-bfed-662b55f37319" d="M-43774-51926h-1385v179h-1060v-2404h2445z" data-description="3" id="EH.06.02" data-area="5,44" data-hasqtip="5568" style="fill: rgb(165, 166, 234);"></path>

  <path data-id="spa-c9685cb4-d258-4049-96b7-fb796a4a4517" d="M-30874-107392v-3669h-450v273v2v62v3332z" data-description="-" id="BS.06.04" data-area="1,65" data-hasqtip="5569"></path>

  <path data-id="spa-97b324bf-c7fb-4a32-8d3b-f406ccb9f492" d="M-35446-48626v-1575h-2520v1575z" data-description="3" id="EH.06.01" data-area="3,97" data-hasqtip="5570" style="fill: rgb(165, 166, 234);"></path>

  <path data-id="spa-3e5a4cc1-dd2d-4915-a936-7379162e18a7" d="M-3380-60422l4974-1366l-800-2915l-5-16l-290-1059l-4977 1366z" data-description="3" id="EK.06.06" data-area="21,3" style="fill: rgb(165, 166, 234);" data-hasqtip="5571"></path>

  <path data-id="spa-a0481be5-f398-4f67-b6b3-bb5bd4ebcec1" d="M-33487-109419v-1230h-973v1230z" data-description="3" id="BO.06.09" data-area="1,18" style="fill: rgb(165, 166, 234);" data-hasqtip="5572"></path>

  <path data-id="spa-2f8bd36b-b0d2-4c0b-80ba-53634ff4a935" d="M-34424-94506v-2525h-2135v2525z" data-description="-" id="BS.06.01" data-area="5,39" data-hasqtip="5573"></path>

  <path data-id="spa-96804524-8c8f-4320-a264-ae9af045330c" d="M27723-62642l711 136l155 30l1983 379l-115 599l-17 88l-2848-544z" data-description="-" id="DS.06.04" data-area="1,96" data-hasqtip="5574"></path>

  <path data-id="spa-4177ef59-62ff-4109-bbac-3e936058fc6b" d="M-33734-105604v-1650h-2212v1650z" data-description="3" id="BO.06.05" data-area="3,63" data-hasqtip="5575" style="fill: rgb(165, 166, 234);"></path>

  <path data-id="spa-db969790-59c1-45b0-9319-ec3083f0f9f7" d="M-31424-110786v-275h-5160v275z" data-description="-" id="BS.06.06" data-area="1,41" data-hasqtip="5576"></path>

  <path data-id="spa-56b30ecd-c7a2-4109-98e8-24526e32cd1a" d="M-30734-88691v-8480h-3550v6972v8v145v1355z" data-description="3" id="BV.06.01" data-area="30,1" data-hasqtip="5577" style="fill: rgb(165, 166, 234);"></path>

  <path data-id="spa-99fcf628-c4ee-412d-8ac9-aa72ea15d3a8" d="M-44633-58425v-448h-450v448h-1136v-7671h1708l202 130h5010v4675h2779v2418v448z" data-description="3" id="EK.06.03" data-area="60,2" style="fill: rgb(165, 166, 234);" data-hasqtip="5578"></path>

  <path data-id="spa-d68b0f3e-8791-44e8-9ecc-5859393aea08" d="M-26659-78449v-17663h12670h372l7218-2040l37-11h43l-43 13v11h3570v-1487h-195v-450h136v-7950h-135v-135h-3285h-122v-533v-2060h0v-5421v-666v-565l-633-56h-39091v41262l1672-200l20-2l16-2l9-1l12335-1473l6 50l3342-400l85-10h6l-12-100l2069-247zm-1625-4242v-450h450v450zm-2450-2750v-3235v-161v-8197v-107v-168v-1187v-145v-8v-3017h0v-4365h-930v424h-1892v-1645h2822v-3949h-5990v2817v449v1v7949v450v894v145v1179v146v5630v450v900v145v1209v146v7v3243v3150h5990zm2450-6100h450v450h-450zm450-8038v-450h-450v450zm0-8400v-450h-450v450zm-450-8151h450v450h-450zm-7951 43h-450v450h450zm-8399 45h-450v450h450zm-450 7701v450h450v-450zm0 8400v450h450v-450zm0 8400v450h450v-450zm0 8400v450h450v-450zm25287-16932h450v450h-450zm-44-8399h450v450h-450zm-41-7700h450v450h-450zm8400-44h450v450h-450zm43 8150h450v-450h-450zm44 8399h450v-450h-450z" data-description="3" id="BK.06.01" data-area="1073" style="fill: rgb(165, 166, 234);" data-hasqtip="5579" class=""></path>

  <path data-id="spa-2656b79e-5c54-4753-8f65-f8d704eed482" d="M-37966-48626v-1583v-7h-60v-1410h-1009h-297h-89h-1236h-3118h-1384v-121h-1060v3121z" data-description="3" id="EV.06.01" data-area="24,8" data-hasqtip="5580" style="fill: rgb(165, 166, 234);" class=""></path>

  <path data-id="spa-f59ce957-eadb-4cd1-86d7-b07ebaf50547" d="M-37578-51938h-1318v-1093h1318z" data-description="3" id="EO.06.07" data-area="1,44" style="fill: rgb(165, 166, 234);" data-hasqtip="5581"></path>

  <path data-id="spa-03491579-0d19-4acc-8471-9e73d88a2e3c" d="M26802-60392l1208 231l-169 884l-1208-231z" data-description="3" id="DO.06.05" data-area="1,11" style="fill: rgb(165, 166, 234);" data-hasqtip="5582"></path>

  <path data-id="spa-ca9af088-995c-4af1-b44d-478c21bed98b" d="M2853-57882l95-26l9364-2570l-2179-7937l-4475 1228l-75 21l22 82l-57 16l-3067 842l270 984l-1784 490l801 2917zm5017-1688l-119-434l-434 119l119 434z" data-description="3" id="DK.06.09" data-area="78,2" style="fill: rgb(165, 166, 234);" data-hasqtip="5583"></path>

  <path data-id="spa-3f9fde05-8732-4b9a-b8ca-d427ad8a7f41" d="M-36084-101791v-91v-247v-3388v-1837h-150v-583h-412h62v6143z" data-description="-" id="BS.06.03" data-area="2,98" data-hasqtip="5584"></path>

  <path data-id="spa-d623b5a0-1386-42d7-b4b6-9f81b915dcd9" d="M-38459-66266v-2500h-850h-1250h-1450h-1250h-850v2500h4809h168z" data-description="3" id="EL.06.04" data-area="14,1" style="fill: rgb(165, 166, 234);" data-hasqtip="5585"></path>

  <path data-id="spa-91b4cece-468a-47f4-a790-ad1ba6f0533f" d="M26597-60612l256-1341l914 175l-257 1341z" data-description="3" id="DK.06.05" data-area="1,27" data-hasqtip="5586" style="fill: rgb(165, 166, 234);"></path>

  <path data-id="spa-fdbc76e7-ae0a-4bd3-bae1-b031dd9d7bf1" d="M21175-50465l296-1552l-3688-705l-297 1552z" data-description="3" id="DH.06.04" data-area="5,93" data-hasqtip="5587" style="fill: rgb(165, 166, 234);"></path>

  <path data-id="spa-2cf1fc18-7618-4b37-9059-dbe3adcd59e1" d="M-32139-58425v-2866h-4381v2418h351v448z" data-description="3" id="EK.06.04" data-area="12,4" style="fill: rgb(165, 166, 234);" data-hasqtip="5588" class=""></path>

  <path data-id="spa-b5e49ae0-98e0-494e-a306-d82dc12652b6" d="M26273-57622l1208 231l-169 884l-1208-231z" data-description="3" id="DO.06.02" data-area="1,11" style="fill: rgb(165, 166, 234);" data-hasqtip="5589"></path>

  <path data-id="spa-e5238c99-8dd5-4227-bab4-5d14b9a419d2" d="M31373-61231l132-688l-933-178l-132 687z" data-description="-" id="DS.06.03" data-area="0,64" data-hasqtip="5590"></path>

  <path data-id="spa-ce1d4f05-41db-460d-ba72-7b4a3a4f2f75" d="M-35513-109419v-1230h-973v1230z" data-description="3" id="BO.06.07" data-area="1,18" style="fill: rgb(165, 166, 234);" data-hasqtip="5591"></path>

  <path data-id="spa-b6964ac0-ce77-4ace-8472-32dfcb2178cc" d="M-34284-88691v-1500h-2440v1500h1065h161h719h160z" data-description="3" id="BH.06.02" data-area="3,66" data-hasqtip="5592" style="fill: rgb(165, 166, 234);"></path>

  <path data-id="spa-00a6b453-a5bb-408e-9d96-1d228a069c4d" d="M-30734-97171v-1470h-5990v1470h2425h15h2z" data-description="3" id="BH.06.03" data-area="8,81" data-hasqtip="5593" style="fill: rgb(165, 166, 234);"></path>

  <path data-id="spa-739b9a2e-33e9-4354-b219-13e2b455b722" d="M19795-62533l-2179-7937l-3626 996l1981 7213l119 434l79 290z" data-description="3" id="DK.06.07" data-area="30,9" style="fill: rgb(165, 166, 234);" data-hasqtip="5594"></path>

  <path data-id="spa-b143d994-c2b8-4290-8adf-6a628f0ea8be" d="M-34500-109419v-1230h-973v1230z" data-description="3" id="BO.06.08" data-area="1,18" style="fill: rgb(165, 166, 234);" data-hasqtip="5595"></path>

  <path data-id="spa-7a4f4e1a-aeb6-412d-ae20-5531eb8b4f8c" d="M31579-62375l341-1782l12 2l10-49l187-982l21-109l-2910-556l-558 2922z" data-description="3" id="DK.06.04" data-area="8,79" data-hasqtip="5596" style="fill: rgb(165, 166, 234);"></path>

  <path data-id="spa-09da08fc-6e7c-4ffa-b5bf-e93202efb3d1" d="M-35046-102204v-1230h-900v1230z" data-description="3" id="BO.06.04" data-area="1,11" style="fill: rgb(165, 166, 234);" data-hasqtip="5597"></path>

  <path data-id="spa-bb304b85-9284-4259-a64d-34074d1f82ec" d="M23129-107000v-960h1230v959z" data-description="3" id="CO.06.06" data-area="1,13" style="fill: rgb(165, 166, 234);" data-hasqtip="5598"></path>

  <path data-id="spa-1be855b2-828d-4e51-afa7-bc8596906ab1" d="M21749-97179l4655 147l119 3l195 6l444 14l81 3l418 2175l-440 84l-4 46l-295 57l29 152l-4518 869z" data-description="-" id="CS.06.03" data-area="16,0" style="fill: rgb(251, 5, 5);" data-hasqtip="5599"></path>

  <path data-id="spa-98069a2c-d86a-481b-b5a7-200dd2ff9cf1" d="M909-64908l1639-450l-230-839l-1640 450z" data-description="-" id="ES.06.10" data-area="1,48" data-hasqtip="5600"></path>

  <path data-id="spa-4b8b8fd2-573f-4db7-bb2e-53992613a666" d="M16486-106180v-2382h5685v350h450v-350h3002v500h-917h-4222h-3322v1882z" data-description="-" id="CS.06.08" data-area="5,31" data-hasqtip="5601"></path>

  <path data-id="spa-6790eb52-a623-4fb4-afa6-3e7583d9350e" d="M23467-84352l2552-490l1-1l13-2l221-43l12-2h2l2476-477h2l12-2l220-43l13-2h1l2577-496l-463-2406l-2578 496l-12 2l-221 43l-12 2l-2480 477l-12 2l-221 43l-12 2l-2553 491z" data-description="3" id="CL.06.03" data-area="20,2" style="fill: rgb(165, 166, 234);" data-hasqtip="5602"></path>

  <path data-id="spa-4283eda1-48a9-4cca-bf36-603e428ed0ab" d="M17783-52722l3553 679l135 26l990-5176l-299-57l613-3207l23-123l146-761h0l272-1424h0l66-343l77-406h0l104-543h0l199-1041h0l362-1891l629-3290l432-2258l26-139l8447 1615l-26 140l-432 2257l-553 2891l2056 396l730-3831l11 3l67-348l-36-184l8044-12694l1526-7972l883-4614l-50 9l-12090 2326l-12-59l-2022 389l11 59l-982 189l27 143l607 3151l30 158l620 3224l-8560 2350l296 1539l24 125l-123 34l-1753 481l-18692 5132l137 498l246-68l119 434l-246 68l1866 6798l246-67l120 433l-246 68l124 453l4475-1229l266-73l3591-986l266-73l3493-959l2159 7864l-123 112l-403 2105l-57 302zm2539-6753l442 84l-85 442l-442-84zm-6694-10853l-434 119l119 434l434-119zm-1986-7233l-434 119l119 434l434-119zm7666-2104l434-120l119 434l-433 120zm2105 7666l434-119l-119-434l-434 119zm8100-2224l434-119l-119-434l-434 119zm6655-1824l434-119l-119-434l-434 119zm-106-7751l-119-434l-434 119l119 434zm-8219 1790l-434 119l119 434l434-119zm11203-9973h450v450h-450zm4562-21h450v450h-450zm-558 3124l442 84l85-442l-442-84z" data-description="3" id="DK.06.01" data-area="610" style="fill: rgb(165, 166, 234);" data-hasqtip="5603"></path>

  <path data-id="spa-b9bcd830-d793-450f-b0ab-5d04c1b33251" d="M-38459-73266v-2500h-488h-153h-359h-1875v-150h-750h0h-1250h0h-393h-382v2650h775h1250h1525h1250z" data-description="3" id="EL.06.01" data-area="14,5" style="fill: rgb(165, 166, 234);" data-hasqtip="5604"></path>

  <path data-id="spa-919f4bb9-991b-4655-b8b4-6da42e1ea3a6" d="M27286-97005l-281-1460l-617-20l8 41l236 1231l37 189z" data-description="-" id="CT.06.01" data-area="1,10" data-hasqtip="5605"></path>

  <path data-id="spa-499548dd-bcc4-48ae-8171-d66ac89d4a76" d="M-32474-109419v-1230h-973v1230z" data-description="3" id="BO.06.10" data-area="1,18" style="fill: rgb(165, 166, 234);" data-hasqtip="5606"></path>

  <path data-id="spa-c6ae684e-8dc7-4d63-ada4-9d03b68dc700" d="M-39421-51926v-2400h450h52h680v-800h-2420v3200z" data-description="-" id="ES.06.02" data-area="4,83" data-hasqtip="5607" class=""></path>

  <path data-id="spa-2f7f055f-7623-4f4e-9056-32f09b52c3e7" d="M24771-107968h981v-599h1585l200 1044l-737 142v2262h-2022z" data-description="3" id="CK.06.02" data-area="6,70" data-hasqtip="5608" style="fill: rgb(165, 166, 234);"></path>

  <path data-id="spa-fc64c9b4-3c21-4b1d-b463-74108a611986" d="M18976-39857h2l162-846l-84-16h0l-1576-302l-162 847z" data-description="-" id="DT.06.02" data-area="1,46" data-hasqtip="5609"></path>

  <path data-id="spa-1c28ea36-a1d2-412f-890c-ba385719b490" d="M20551-98668l445 14l264 1370l-446-14z" data-description="-" id="CT.06.02" data-area="1,33" data-hasqtip="5610"></path>

  <path data-id="spa-75b81e7c-3434-4367-bb93-68a713ff3bf3" d="M24603-58023l1208 231l-184 963l-1208-231z" data-description="3" id="DO.06.09" data-area="1,21" style="fill: rgb(165, 166, 234);" data-hasqtip="5611"></path>

  <path data-id="spa-efe0bea6-2531-4208-883f-b7888d0e47e4" d="M16547-102291h4241h145h769h146h158v-1500h-5459v212h-180v1060h180z" data-description="3" id="CH.06.03" data-area="8,38" data-hasqtip="5612" style="fill: rgb(165, 166, 234);"></path>

  <path data-id="spa-1d032bd9-193b-4014-b3f1-2f004042231f" d="M18475-106448v-1237h-920v1238z" data-description="3" id="CO.06.02" data-area="1,14" style="fill: rgb(165, 166, 234);" data-hasqtip="5613"></path>

  <path data-id="spa-d632f41c-fc9d-44fe-8158-72375c29b961" d="M-30874-98781v-2885h-2085v2885z" data-description="-" id="BS.06.02" data-area="6,02" data-hasqtip="5614"></path>

  <path data-id="spa-dfc21598-1ab0-40a3-a4a5-5017691c4197" d="M-35741-63144v-985h-1230v985z" data-description="3" id="EO.06.05" data-area="1,16" style="fill: rgb(165, 166, 234);" data-hasqtip="5615"></path>

  <path data-id="spa-9964d124-ef17-47c0-a47d-c548e7fbef80" d="M-34924-76066v-1205l-2285 273v932z" data-description="-" id="ES.06.05" data-area="2,61" data-hasqtip="5616"></path>

  <path data-id="spa-f153eb06-ad25-4a19-bda5-eab45d57bc12" d="M29259-71740l2490 476l-80 418l-1-1l-892-170l-99 515l-1596-305z" data-description="-" id="DS.06.02" data-area="1,93" data-hasqtip="5617"></path>

  <path data-id="spa-cffe0116-b2db-43a4-893b-d390fc9d02f4" d="M-33389-54051h-1462v-350h27h1409h26z" data-description="-" id="ES.06.01" data-area="0,64" data-hasqtip="5618"></path>

  <path data-id="spa-2eefdb5c-c459-43ce-8caf-2a7d0613854e" d="M17200-33357l418 80l30-157l98 19l296-1550l-98-18l58-305l99 19l326-1704l-99-19l83-430l-418-80z" data-description="-" id="DS.06.07" data-area="2,13" data-hasqtip="5619"></path>

  <path data-id="spa-026c7577-4ad1-419b-a00b-21831cda152f" d="M23134-106001v-959h1230v959z" data-description="3" id="CO.06.07" data-area="1,13" style="fill: rgb(165, 166, 234);" data-hasqtip="5620"></path>

  <path data-id="spa-074e1087-a20d-4756-ba27-c61134e6c3c4" d="M-33111-98783v-2881h-3446v1679h323v450h-323v752z" data-description="4" id="BK.06.04" data-area="9,78" data-hasqtip="5621" style="fill: rgb(194, 60, 183);"></path>

  <path data-id="spa-9c51b161-1243-4218-a04d-921a133fd3ac" d="M15305-38168l578 110l2077 397l491 94l86 17l413-2159l-1807-346l189-993l1-1l-1425-272" data-description="-" id="DS.06.06" data-area="8,70" data-hasqtip="5622"></path>

  <path data-id="spa-c3c7974c-7cdd-41c5-b627-b743d6c163a3" d="M3344-55943l15676-4303l213-59l419-2189l-3350 920l-266 73l-3591 986l-266 73l-9364 2571z" data-description="3" id="GH.06.01" data-area="33,9" style="fill: rgb(165, 166, 234);" data-hasqtip="5623"></path>

  <path data-id="spa-03f832bb-c9a8-4f1d-897f-3f674c9be525" d="M30649-92281l982-189l2023-389l12211-2349l4329-22620h-39749l-4403 284l-6381 412l-6156-548v565h122v8501h3285v-135h450v450h-135v7950h134v450h-229v1487h19153v-4192v-1060v-5124h11146l1347 7003l22 113l567 2946l53 278l574 2981l28 151zm-47-8055h450v450h-450zm-44-8400h450v450h-450zm-40-7700h450v450h-450zm-7950 41h-450v450h450zm-8400 44h-450v450h450zm-410 7703v450h450v-450zm494 8397v450h-450v-450zm-8400 44v450h-450v-450zm-44-8400h-450v450h450zm-40-7700h-450v450h450zm-8400 44h-450v450h450zm41550-217h450v450h-450zm42 8150h450v-450h-450zm7876-39h450v-450h-450zm1462-8158h450v450h-450zm-2632 16112v450h-450v-450zm-6664 35v450h450v-450z" data-description="3" id="CK.06.01" data-area="961" style="fill: rgb(165, 166, 234);" data-hasqtip="5624" class="" aria-describedby="qtip-5624"></path>

  <path data-id="spa-548122f1-ea0d-43d9-89af-13a7792ad2f0" d="M21851-80899l1876-515l-295-1531l-27-141l-749-3895l-30-157l-606-3152l-31-157l-1519-7900h-3992h-19107h-301h-3432l-37-13l-7200 2035l-18 5h14778l1837 484l-4365 3902l1560 1746l5458-4936h13411l1808 9384l45-9l412 2140z" data-description="3" id="FH.06.02" data-area="126" style="fill: rgb(165, 166, 234);" data-hasqtip="5625" class="" aria-describedby="qtip-5625"></path>

  <path data-id="spa-9a1dc5e6-1e48-437f-b1ac-0bf070f7da6a" d="M-2306-56517l4972-1365l-23-85l-1049-3821l-4974 1366zm2076-829l-119-434l-434 119l119 434z" data-description="3" id="EK.06.05" data-area="20,8" style="fill: rgb(165, 166, 234);" data-hasqtip="5626"></path>

  <path data-id="spa-2066e1fc-63ae-4f0d-abee-f94f97a8c8d4" d="M-32986-62119v-2010h-2715v1005v1005h1715z" data-description="3" id="EO.06.03" data-area="5,06" style="fill: rgb(165, 166, 234);" data-hasqtip="5627"></path>

  <path data-id="spa-ef3a3b23-dd4d-4910-8197-fc2464443138" d="M23189-61294h0l273-1424h0l65-344l1562 298l1591 305l-60 317l-315 1644l-85 445l-3153-603" data-description="1" id="DL.06.01" data-area="7,86" style="fill: rgb(175, 180, 28);" data-hasqtip="5628"></path>

  <path data-id="spa-d5b1c51c-c8f7-4ae3-91f8-1af52044436e" d="M15909-42920l3688 706l-290 1517l-246-47l26-138l-3428-655l-13 69l-14-3z" data-description="3" id="DH.06.05" data-area="5,35" data-hasqtip="5629" style="fill: rgb(165, 166, 234);"></path>

  <path data-id="spa-f406eda0-7459-4e95-b08d-bcbfee807e46" d="M25380-72482l3879 742l-17 89l-161 844l1596 305l-211 1105l-5476-1047z" data-description="-" id="DS.06.01" data-area="10,0" data-hasqtip="5630"></path>

  <path data-id="spa-3f334968-6f38-48f9-9c99-a4529f698f26" d="M-31034-85741v-2650h-3300v2650z" data-description="1" id="BL.06.01" data-area="8,75" data-hasqtip="5631" style="fill: rgb(175, 180, 28);"></path>

  <path data-id="spa-ab8daa98-f368-4561-b3e8-e3e454bac2f9" d="M-31461-107429v-1950h-993h-1013h-1013h-1013h-993v946h390v1004z" data-description="3" id="BO.06.06" data-area="9,24" style="fill: rgb(165, 166, 234);" data-hasqtip="5632"></path>

  <path data-id="spa-f2c93999-347e-4928-955e-994f8a61d0dc" d="M23145-104003v-959h1230v959z" data-description="3" id="CO.06.09" data-area="1,13" style="fill: rgb(165, 166, 234);" data-hasqtip="5633"></path>

  <path data-id="spa-71170ca9-fb95-4e98-8395-adc7013088de" d="M-28819-70018v-7950v-123l-3340 399v1626v150v151v2649v150v3700v165z" data-description="3" id="FH.06.01" data-area="27,7" style="fill: rgb(165, 166, 234);" data-hasqtip="5634"></path>

  <path data-id="spa-1366791f-cc3c-47e4-b2bb-dcfabe3b4167" d="M23671-83295l7979-2191l-32-169l-2-12l-19-96l-2578 496l20 103l-246 48l-19-104l-2480 477l20 103l-245 48l-20-103l-2553 491l18 95l2 13l131 680l3 13z" data-description="-" id="CS.06.01" data-area="4,93" data-hasqtip="5635"></path>

  <path data-id="spa-1ad92cdd-2d95-4578-933a-01b413b909af" d="M26626-59469l1208 231l-169 884l-1208-231z" data-description="3" id="DO.06.04" data-area="1,11" style="fill: rgb(165, 166, 234);" data-hasqtip="5636"></path>

  <path data-id="spa-48def67b-ae08-49c2-99aa-b46e488ddd99" d="M26449-58546l1208 232l-169 883l-1208-231z" data-description="3" id="DO.06.03" data-area="1,11" style="fill: rgb(165, 166, 234);" data-hasqtip="5637"></path>

</svg>