<svg data-data-id="planview" xmlns="http://www.w3.org/2000/svg" width="100%" height="100%" preserveAspectRatio="xMidYMin meet" xmlns:xlink="http://www.w3.org/1999/xlink" viewBox="-81567 -121608 140506 160491" style="cursor: grab;">

  <path data-id="spa-8c8279e0-bc6f-4ad2-894e-56dac97e2687" d="M24343-67055l124 24l1071 204l163 31l180 35l4865 930l563-2946l-6404-1225l-563 2947" data-description="3" id="DV.01.01" data-area="19,6" data-hasqtip="6846" style="fill: rgb(165, 166, 234);"></path>

  <path data-id="spa-b046845e-31be-4652-84ec-6d1c7eb7ca30" d="M17260-102313l11222 352l658 3423l-11986-377z" data-description="3" id="CV.01.01" data-area="39,5" data-hasqtip="6847" style="fill: rgb(165, 166, 234);"></path>

  <path data-id="spa-965a86b1-69a7-4988-883e-fc23bae7c876" d="M-35666-64314v-900h-1230v900z" data-description="3" id="EO.01.02" data-area="1,11" style="fill: rgb(165, 166, 234);" data-hasqtip="6848"></path>

  <path data-id="spa-c7c46307-926a-43c2-9eee-f915df99803f" d="M14041-79731l896-246l326 1186l-897 246z" data-description="3" id="AO.01.11" data-area="1,14" style="fill: rgb(165, 166, 234);" data-hasqtip="6849"></path>

  <path data-id="spa-ce5fe243-2a0a-488e-91bc-41e5ad224e53" d="M-33414-54526v-600h-1412v600z" data-description="-" id="ET.01.01" data-area="1,06" data-hasqtip="6850"></path>

  <path data-id="spa-cad7fe66-b775-478c-bebe-0a22f0498963" d="M-33389-48626v-3175h-370v3174v1h147z" data-description="-" id="ES.01.07" data-area="1,18" data-hasqtip="6851"></path>

  <path data-id="spa-1ecd6112-d40f-4280-afcb-78852447fc52" d="M27386-97227l-6732-211l-2 55l-1294-41l4-138l36-1152l1012 32l-3 84l265 9l3-85l4039 127l-3 85l265 8l3-85l4184 132v-9l640 3324l-1935 372z" data-description="3" id="CH.01.02" data-area="16,3" data-hasqtip="6852" style="fill: rgb(165, 166, 234);"></path>

  <path data-id="spa-aa14c73c-fdec-4d78-a815-6b8ba2c86093" d="M-34059-57467v-2050h-2110v2050z" data-description="3" id="AL.01.01" data-area="4,33" style="fill: rgb(165, 166, 234);" data-hasqtip="6853"></path>

  <path data-id="spa-f4bbf037-3070-4c0a-a357-edab1d199149" d="M-35666-63239v-900h-1230v900z" data-description="3" id="EO.01.05" data-area="1,11" style="fill: rgb(165, 166, 234);" data-hasqtip="6854"></path>

  <path data-id="spa-93dd15ad-eece-4ba9-ac88-31bc053994ba" d="M-30034-91432v-3375h-1085v3375h1007z" data-hasqtip="6855"></path>

  <path data-id="spa-3feb4b0d-e529-4926-8562-b55eabddc2e0" d="M14791-35586l3-13l53-280l3-12l330-1729h0l20-103l1493 286v1l-163 848l1747 334h2l-188 983l-98-19l-59 305l99 18l-244 1275l-85-17l-571-109l-2585-494z" data-description="-" id="DS.01.06" data-area="9,89" data-hasqtip="6856"></path>

  <path data-id="spa-b6c136cb-2051-4f5e-bcfb-82e454fedb61" d="M23467-84352l-462-2406l2553-491l12-2l221-43l12-2l2480-477l12-2l221-43l12-2l2578-496l463 2406l-2576 496h-2l-12 2l-221 43l-12 2h-2l-2476 477h-2l-12 2l-221 43l-12 2l-2 1z" data-description="-" id="CL.01.03" data-area="20,2" style="fill: rgb(251, 5, 5);" data-hasqtip="6857"></path>

  <path data-id="spa-19111940-dd2b-4c41-b911-27be59ad8098" d="M-26752-52940v-5798h145v-5129h70v-5206l-199-24l-13-1393l-37-4074l-957 263l-40 11v52h-550l20 93l-1721 473v-4323l-2125 254v1976v1v2649l-5 150v3900l5 150v151v2799h0v4395h-1605v1803v1l5 250v2v2047v1v251v1v1778v146h510v15486l6497 517zm-1005 10252h-600v600h600zm-1-7550h-600v600h600zm0-8110v-598v-2h-600v2v598v2h600" data-description="3" id="AH.01.01" data-area="222" style="fill: rgb(165, 166, 234);" data-hasqtip="6858" class=""></path>

  <path data-id="spa-7d69082c-df87-49ac-b73e-fe4565a83cd3" d="M19120-79850l-325-1186l-927 254l326 1187z" data-description="3" id="AO.01.07" data-area="1,18" style="fill: rgb(165, 166, 234);" data-hasqtip="6859"></path>

  <path data-id="spa-c1facd55-a317-4ed3-88ff-caa4d84804a3" d="M22712-87007l-661-3437l8337-1603l661 3437z" data-description="3" id="CH.01.01" data-area="29,7" style="fill: rgb(165, 166, 234);" data-hasqtip="6860"></path>

  <path data-id="spa-b1d3ac08-22c1-4c0d-b7ed-22fbc02be20b" d="M-30049-82526v-2915h-6545v2225h436v690z" data-description="3" id="BK.01.01" data-area="18,8" data-hasqtip="6861" style="fill: rgb(165, 166, 234);"></path>

  <path data-id="spa-b34bc508-0bb8-4e61-b107-a017ff82c678" d="M-44509-65977v-2939v-150h5v-3900h-5v-150v-2950v-60l15-2l-15-89l-1796 215l-154 18v10025z" data-description="3" id="EH.01.04" data-area="19,8" data-hasqtip="6862" style="fill: rgb(165, 166, 234);"></path>

  <path data-id="spa-f493aac6-b07e-4835-8ed5-b71f43ce4d2f" d="M15471-40765l-3 17l-4158-330l-3762-300l-1084-86zm-214-7765l-119-434h0l119 434" data-description="4" id="AK.01.08" data-area="167" data-hasqtip="6863" style="fill: rgb(194, 60, 183);"></path>

  <path data-id="spa-73968d2c-54a4-471a-9b6a-d8c8b865a90a" d="M-6464-72481l3525-968l-27-99l434-119l27 99l9036-2481l7-363l97-27l501 212l17 8l498-137l11-16l321-440l97-27l195 312l4899-1345l-1891-6891l1157-317l4 14l159-43l-1086-3954l-166 46l4 14l-5411 1486l1 3l-1 1l-433 119l-1-4l-4882 1340l2 7l-3073 846l-1 1l-433 119l1 4l-6553 1800z" data-description="1" id="AI.01.02" data-area="229" data-hasqtip="6864" style="fill: rgb(175, 180, 28);" class="" aria-describedby="qtip-6864"></path>

  <path data-id="spa-8767aef4-b34a-4d06-aa19-8df1efde0fd5" d="M-30034-94932v-5275h-1085v174v5101z" data-description="-" id="BS.01.02" data-area="5,68" data-hasqtip="6865"></path>

  <path data-id="spa-e3d7c389-c97d-4123-bce0-1552f86ce7d8" d="M-30034-85741v-2800h-875v2800z" data-description="-" id="BS.01.07" data-area="2,38" data-hasqtip="6866"></path>

  <path data-id="spa-ed15f876-67e6-4ffe-827d-5c520ccb76d2" d="M-14623-91169l-21-78h2952l1169 4259l-2749 755z" data-description="1" id="AH.01.06" data-area="13,7" data-hasqtip="6867" style="fill: rgb(175, 180, 28);"></path>

  <path data-id="spa-a7359e67-e251-4bef-9f31-31ad9559c63d" d="M27723-62642h0l2849 545l-115 599l-17 89l-2848-545z" data-description="-" id="DS.01.04" data-area="1,96" data-hasqtip="6868"></path>

  <path data-id="spa-fcf7b6ce-0413-4228-9752-2f5b00ee9242" d="M17191-79320l-325-1186l-926 254l326 1186z" data-description="3" id="AO.01.09" data-area="1,18" style="fill: rgb(165, 166, 234);" data-hasqtip="6869"></path>

  <path data-id="spa-fe728634-0566-4605-8ed3-c364d55edf14" d="M13043-98998l2162 68l-39 1234l-2161-68z" data-description="3" id="CT.01.01" data-area="2,67" data-hasqtip="6870" style="fill: rgb(165, 166, 234);"></path>

  <path data-id="spa-25c43471-76d4-4fac-940b-42719aa9b175" d="M14133-39187l1063 85l233-1215l-1198-96z" data-description="3" id="AO.01.22" data-area="1,40" style="fill: rgb(165, 166, 234);" data-hasqtip="6871"></path>

  <path data-id="spa-2ed95097-e209-49e6-911a-1c56222d8c7a" d="M25380-72482l3879 742l-17 89l-161 844l1596 305l-211 1106l-5476-1047z" data-description="-" id="DS.01.01" data-area="10,0" data-hasqtip="6872"></path>

  <path data-id="spa-1b8af93d-7bf6-4522-a595-74711056874f" d="M-36509-61711h-750v-269v-1v-63v-117h288h462z" data-description="-" id="ES.01.10" data-area="0,32" data-hasqtip="6873"></path>

  <path data-id="spa-0675d428-0830-4ecc-a3d2-e7711c9a36a6" d="M-7866-53150l-24-87h-1l-692-2511l-718-2608l-171-618h403h244h3018l-4395-16072l-16547 4560l-37-4074l15550-4269l-2036-7415l2749-755l981 3575l-107 29l3057 11133l106-29l2 7l22-6v2l1049 3820l1276 4543l-26 8l2957 10772zm-11395-21591h-450v450h450zm8399-8021v-450h-450v450" data-description="3" id="AH.01.05" data-area="185" data-hasqtip="6874" style="fill: rgb(165, 166, 234);" class=""></path>

  <path data-id="spa-5826df9b-3f6b-4366-834b-a8b4e5f6755b" d="M15320-30595l1850 141l508-2659l-97-18l82-433l-496-95l-515 2690l-1243-95z" data-description="-" id="DS.01.07" data-area="2,47" data-hasqtip="6875"></path>

  <path data-id="spa-0e647b72-58ba-42bd-bfe4-1f622e1a93c7" d="M-13608-53161h-7994h-87v-1267v-4227v-276v-37h7731l69-1l46 169l193-52l-32-117h68v25h1055v-25h1893v25h44h84l192 292l98-26l188-267h36h176h346l166 605l43-12l718 2608l-45 13l705 2566z" data-description="1e" id="AH.01.02" data-area="75,2" data-hasqtip="6876" style="fill: rgb(40, 194, 200);" class="" aria-describedby="qtip-6876"></path>

  <path data-id="spa-302e0b99-3c47-4ae8-9766-0a7b44b9a19e" d="M-38889-38545v-1161h-745v-336h30v-5000h-30v-2914h-5729v9411z" data-description="vide" id="WI.01.01" data-area="54,9" data-hasqtip="6877" class="" aria-describedby="qtip-6877"></path>

  <path data-id="spa-f9f20120-985b-4004-bfba-eb061bd636b2" d="M12715-31092l935 74l233-1215l-1070-85z" data-description="3" id="AO.01.17" data-area="1,24" style="fill: rgb(165, 166, 234);" data-hasqtip="6878"></path>

  <path data-id="spa-b1281fcb-428f-4fbd-8320-059b46281fd5" d="M-30034-88641v-2691h-1085v1041v1650h235h66z" data-description="-" id="BS.01.06" data-area="2,85" data-hasqtip="6879"></path>

  <path data-id="spa-566b445d-b8b7-4323-9f48-4b96296eae43" d="M15559-39520l3128 598l657-3432l-15-3l1268-6630l14 3l268-1400l-3128-598z" data-description="3" id="DV.01.03" data-area="37,1" data-hasqtip="6880" style="fill: rgb(165, 166, 234);"></path>

  <path data-id="spa-745adb53-e9b6-47c8-a1dc-a79f3d44d526" d="M-2908-34970l-2255-8182l193 87l26 369l566-175l23-496l-5-17l-273-415l-576 138l166 331l-122 173l-2717-9860l-14-50l-22-83h6523h189l3149 11472l-2515-200l-2313 635l-291 79l80 290v1l1137 4143l1 2l79 289l291-80l2483-681l711 2589z" data-description="3" id="AH.01.04" data-area="92,6" data-hasqtip="6881" style="fill: rgb(165, 166, 234);" class="" aria-describedby="qtip-6881"></path>

  <path data-id="spa-ee6bc443-386c-4897-931d-4040136b6d39" d="M31507-69199l1184 227l-1 1l157 30l313-1635l77-403l-1340-257l-94 491l-14 74l-1 2z" data-description="3" id="DH.01.01" data-area="2,78" data-hasqtip="6882" style="fill: rgb(165, 166, 234);"></path>

  <path data-id="spa-b771ae95-ffec-4a1e-bdfd-b8bc80996fea" d="M-32559-73266v-2500h-2213h-153h-2282h-153h-849v2500h850h1250h1450h1250z" data-description="3" id="EL.01.02" data-area="14,1" style="fill: rgb(165, 166, 234);" data-hasqtip="6883"></path>

  <path data-id="spa-d87f65ee-d6df-46a1-9ce7-9a060ce42c9d" d="M-33389-45156v-3370h-1h-360v200v20v3150z" data-description="-" id="AS.01.01" data-area="1,21" data-hasqtip="6884"></path>

  <path data-id="spa-f6c79d96-d5fb-45ad-a634-9753dae82455" d="M-9544-83436l6620-1818l-52-188l434-119l98 357l1-1l-50-183l7954-2184l-47-173l433-119l97 351l1-1l-49-177l5520-1515l-599-2175h-188h-4730h-450h0h-7950v-2h-450v2h-7949h-450h-342l1169 4259z" data-description="1" id="AI.01.03" data-area="106" data-hasqtip="6885" style="fill: rgb(175, 180, 28);"></path>

  <path data-id="spa-901205c4-0c3b-4790-898e-be4ca1406cd6" d="M16245-82770l-326-1186l-916 251l326 1186z" data-description="3" id="AO.01.14" data-area="1,17" style="fill: rgb(165, 166, 234);" data-hasqtip="6886"></path>

  <path data-id="spa-5da1728b-0119-47ec-96dc-638e8ddef5a2" d="M13094-83180l916-252l325 1186l-916 252z" data-description="3" id="AO.01.12" data-area="1,17" style="fill: rgb(165, 166, 234);" data-hasqtip="6887"></path>

  <path data-id="spa-b04a308b-6cbf-45ac-9ba5-1d03d3dd960e" d="M26951-94492l-38-197l748-143l-418-2174l-5494-172l684 3555z" data-description="-" id="CS.01.03" data-area="16,0" style="fill: rgb(251, 5, 5);" data-hasqtip="6888"></path>

  <path data-id="spa-c0a50237-875e-4c2c-9bcc-e629fe86cb18" d="M13136-39266l957 76l98-1226l-957-76z" data-description="3" id="AO.01.21" data-area="1,18" style="fill: rgb(165, 166, 234);" data-hasqtip="6889"></path>

  <path data-id="spa-5deb7f51-75dd-4e9d-92f9-e9f40f40a608" d="M-37359-76066v-914l-1590 190v724h489h253z" data-description="-" id="ET.01.02" data-area="1,26" data-hasqtip="6890"></path>

  <path data-id="spa-929ae90b-7ec5-4f53-96ef-ea7d802bebab" d="M11009-32233l-880-3206l4301 343l-188 987l-352 1836l-1114-88l-101 1266l-737-59l-646-52z" data-description="3" id="AO.01.16" data-area="12,5" style="fill: rgb(165, 166, 234);" data-hasqtip="6891"></path>

  <path data-id="spa-f54e82bb-b6c4-412f-9996-eb8d1f4e5f5e" d="M17949-90557l1208-232l-181-943l-1208 232z" data-description="3" id="AO.01.02" data-area="1,18" style="fill: rgb(165, 166, 234);" data-hasqtip="6892"></path>

  <path data-id="spa-04c7df36-1478-4714-993f-31b14508fad1" d="M11485-84647l965-265l333 1215l1 2l133 485l9 34l258 940l-964 265z" data-description="-" id="AS.01.13" data-area="2,76" data-hasqtip="6893"></path>

  <path data-id="spa-d1185f7a-d27f-4909-ac4b-882ab20167da" d="M26961-62596l35-185l724 139l-131 687l-724-138z" data-description="-" id="DS.01.05" data-area="0,50" data-hasqtip="6894"></path>

  <path data-id="spa-0c11bf8c-cf3c-4c2a-a7b7-fed1a7529850" d="M-17625-68902h-8702v4860h10033zm-4144 2268h-400v400h400z" data-description="4" id="AH.01.03" data-area="45,3" data-hasqtip="6895" style="fill: rgb(194, 60, 183);"></path>

  <path data-id="spa-d3ccd4a6-f33f-40a1-af91-74857d1fdb16" d="M17533-83251l2121-582l-436-1591l-2122 582z" data-description="3" id="AO.01.05" data-area="3,63" data-hasqtip="6896" style="fill: rgb(165, 166, 234);"></path>

  <path data-id="spa-c088a6be-d121-477d-92e3-8d61d1c058c6" d="M18138-89575l1208-232l-182-943l-1207 232z" data-description="3" id="AO.01.03" data-area="1,18" style="fill: rgb(165, 166, 234);" data-hasqtip="6897"></path>

  <path data-id="spa-a2915d65-25b5-416c-aa18-9733faa223e2" d="M16244-87669l749-144l-33-172l-602 115l-140-726l-147-766l-147-766l-148-766l-158-825h1017h1037l43 223l12-2l187 968l188 982l193 1002l1247-240l3 12l329-63l557 2898l-2694 740l-967 265z" data-description="3" id="AO.01.01" data-area="18,7" style="fill: rgb(165, 166, 234);" data-hasqtip="6898"></path>

  <path data-id="spa-6f8c5105-542f-47f6-9c9d-8f5086331c0f" d="M14030-79769l916-252l964-264l964-265l965-265l984-270l336 1225l12-4l73 266l2286-628l-190-986l-530-2757l-3587 985l-4-12l-3 1l-941 258l-955 262l-955 262l-935 257z" data-description="3" id="AO.01.06" data-area="20,9" style="fill: rgb(165, 166, 234);" data-hasqtip="6899"></path>

  <path data-id="spa-083acec8-f722-4849-b998-dd1442f7a06f" d="M-36132-100531v-3214v-47l4758 150v3111z" data-description="-" id="BS.01.03" data-area="15,2" style="fill: rgb(251, 5, 5);" data-hasqtip="6900"></path>

  <path data-id="spa-93af9ce1-85ea-4465-92e8-351883fc81a3" d="M-35666-62299v-900h-1230v900z" data-description="3" id="EO.01.04" data-area="1,11" style="fill: rgb(165, 166, 234);" data-hasqtip="6901"></path>

  <path data-id="spa-9199447b-5f02-48dd-bc16-6f226d097688" d="M-33759-55291v-1926h-301h-2334h-225v-250v-2050v-250h225h2334h296v-1804h-5535v-4395h-4860v-14h-167l-1994 19h-139v11933h2540h145v-1265zm-10824-3630h-550v550h550z" data-description="3" id="AK.01.01" data-area="107" style="fill: rgb(165, 166, 234);" data-hasqtip="6902"></path>

  <path data-id="spa-2b6a88ad-b37f-4ff2-919f-7279267d6a35" d="M-39074-76066h-384v-150h-1h-1900h-725h-1250h-393v-4l4653-555z" data-description="-" id="ES.01.06" data-area="1,25" data-hasqtip="6903"></path>

  <path data-id="spa-4e8fdb73-de25-4c6b-a0bf-85dbfbf1e851" d="M-30034-91432v-3375h-1085v3375h1007z" data-description="-" id="BT.01.01" data-area="3,63" data-hasqtip="6904"></path>

  <path data-id="spa-e17e367f-ee4a-4efa-aac1-fb5407829b62" d="M16227-79055l-326-1186l-926 254l327 1186z" data-description="3" id="AO.01.10" data-area="1,18" style="fill: rgb(165, 166, 234);" data-hasqtip="6905"></path>

  <path data-id="spa-27571089-3869-4aa0-909c-ec9a58157ade" d="M-33389-54051v-350h-1435h-27v350z" data-description="-" id="ES.01.01" data-area="0,64" data-hasqtip="6906"></path>

  <path data-id="spa-6d16a1d6-96c9-427f-99f7-59b45f9114cd" d="M19111-91757h239l534 2778l-230 44z" data-description="3" id="AS.01.04" data-area="0,67" data-hasqtip="6907" style="fill: rgb(165, 166, 234);"></path>

  <path data-id="spa-7a3fff06-a177-4098-aba1-e4c752b5aba1" d="M-15104-35941l456-2384l-12104-963v-149v-13503h190v-2453h220v-3196h4430v-192l143-2v204h73v4162h-163v1267v2962h250v-2962h7946v248h100v-248h5464h171l41 152l-76 21l4947 18018zm9608-6980l123-174l-1-4l-194-87l-27-369l-565 175l-23 496l4 17l273 415l576-138z" data-description="1e" id="AI.01.01" data-area="358" data-hasqtip="6908" style="fill: rgb(40, 194, 200);" class="" aria-describedby="qtip-6908"></path>

  <path data-id="spa-630f1de6-df09-4412-9514-b22ce1f939c1" d="M-34436-90344v-3660h-2160v2375h450v625h-450v660z" data-description="3" id="BK.01.02" data-area="6,44" data-hasqtip="6909" style="fill: rgb(165, 166, 234);"></path>

  <path data-id="spa-44ff171f-6ad6-4f91-a8c7-53a74d1e03ff" d="M-38459-73266v-2500h-488h-128h-383h-1876h0h-25v-150h-725h0h-1250h0h-393h-382v2650h775h1250h1525h1250z" data-description="3" id="EL.01.01" data-area="14,5" style="fill: rgb(165, 166, 234);" data-hasqtip="6910"></path>

  <path data-id="spa-dcf85713-e567-42f1-a680-188444080b29" d="M9798-36646l-1232-4488l2656 212l-20 255l-1 6l-101 1273l1017 81l996 79l997 80l1079 86l-536 2804l-190 989l-4383-349z" data-description="3" id="AO.01.18" data-area="24,0" style="fill: rgb(165, 166, 234);" data-hasqtip="6911"></path>

  <path data-id="spa-79562f87-af8e-42f7-9784-06831aaf7ddf" d="M15339-98748l1233 39l500 15l78-91l2248 71l-40 1290l-4057-127z" data-description="3" id="CH.01.03" data-area="4,99" data-hasqtip="6912" style="fill: rgb(165, 166, 234);"></path>

  <path data-id="spa-0ca3bd60-5adb-4b53-884f-af9142a53742" d="M18065-52625l3113 596l-280 1465l-3113-595z" data-description="3" id="DH.01.04" data-area="4,73" data-hasqtip="6913" style="fill: rgb(165, 166, 234);"></path>

  <path data-id="spa-9eff0893-f409-446a-a98d-8aa6a78fc0f9" d="M16840-37409l1503 287l-25 128l99 19l-110 574l-1601-306z" data-description="-" id="DT.01.02" data-area="1,15" data-hasqtip="6914"></path>

  <path data-id="spa-7561a96d-34b5-4dac-b93f-df6d085f39d7" d="M30613-69368l746 143l282-1474l-746-143l-71 368z" data-description="-" id="DT.01.01" data-area="1,14" data-hasqtip="6915"></path>

  <path data-id="spa-b90a7fe5-0182-4c9d-b735-99852282996f" d="M-34344-88691v-1500h-2370v1500h1035v60h8h1045h7v-60z" data-description="3" id="BH.01.02" data-area="3,56" data-hasqtip="6916" style="fill: rgb(165, 166, 234);"></path>

  <path data-id="spa-f72da02b-0565-4680-a24d-a398ade48c89" d="M-33429-51941v-1970h-2409v1970h353v15h20h1100h20v-15h436h152z" data-description="3" id="EH.01.01" data-area="4,76" data-hasqtip="6917" style="fill: rgb(165, 166, 234);"></path>

  <path data-id="spa-44fccc30-c4e2-4f6a-b9b9-2e12024d013d" d="M-38459-66266v-2500h-850h-1250h-1450h-1250h-850v2500h4809h168z" data-description="-" id="EL.01.04" data-area="14,1" style="fill: rgb(251, 5, 5);" data-hasqtip="6918"></path>

  <path data-id="spa-620746bc-be05-4a49-90f1-b1b821142a7e" d="M29259-71740l2490 476l-80 418l-1-1l-892-170l-99 515l-1596-305z" data-description="-" id="DS.01.02" data-area="1,93" data-hasqtip="6919"></path>

  <path data-id="spa-61f224b0-79ea-47e5-a79f-bdb77072613c" d="M-32299-76066v-1518l-2475 295v1223h2214z" data-description="-" id="ES.01.04" data-area="2,97" data-hasqtip="6920"></path>

  <path data-id="spa-bb068f63-a75d-47d7-bb0f-6c1851c0be6e" d="M-21769-58783v-849v-529h71v-3706h-4624v5107h538v8l3954-36z" data-description="3" id="AK.01.03" data-area="23,2" data-hasqtip="6921" style="fill: rgb(165, 166, 234);"></path>

  <path data-id="spa-7459c2d9-77b8-4361-8896-d1bb8baf2417" d="M26843-61968l4637 887l-569 2977l-4637-887z" data-description="4" id="DK.01.05" data-area="14,3" data-hasqtip="6922" style="fill: rgb(194, 60, 183);"></path>

  <path data-id="spa-d3ca9a60-c6e4-4e1a-b564-954a40815092" d="M-34924-76066h-2285v-932l2285-273z" data-description="-" id="ES.01.05" data-area="2,61" data-hasqtip="6923"></path>

  <path data-id="spa-42a8812b-4478-493a-88e6-a6346825679e" d="M-34634-85596h-1985v-2390h690v-550h258v-95h1037z" data-description="3" id="BH.01.01" data-area="5,46" style="fill: rgb(165, 166, 234);" data-hasqtip="6924"></path>

  <path data-id="spa-4bd6026c-ffa8-4f63-b553-c2d0a8b01c24" d="M30923-65797l563-2946l1277 244l-563 2946l-157-30v1z" data-description="3" id="DH.01.06" data-area="3,90" data-hasqtip="6925" style="fill: rgb(165, 166, 234);"></path>

  <path data-id="spa-7bfa287a-a7fb-4c07-a446-2a93b18fe2fa" d="M17199-83032l-325-1186l-916 251l325 1186z" data-description="3" id="AO.01.15" data-area="1,17" style="fill: rgb(165, 166, 234);" data-hasqtip="6926"></path>

  <path data-id="spa-8e77ab23-3762-47cf-929f-be58e2d2c66c" d="M-39459-51926v-2075v-325h1220v-800h-2420v3200z" data-description="-" id="ES.01.02" data-area="4,74" data-hasqtip="6927"></path>

  <path data-id="spa-de2051c8-a042-40cd-a5ac-c4eb712dab47" d="M14048-83443l916-251l326 1186l-916 252z" data-description="3" id="AO.01.13" data-area="1,17" style="fill: rgb(165, 166, 234);" data-hasqtip="6928"></path>

  <path data-id="spa-042b71b7-89a4-4b1f-bbf7-396aeb737e0b" d="M-32986-64314v-515h650v-1125h-23h-3267h-1270v700h1270v940z" data-description="3" id="EO.01.01" data-area="5,95" style="fill: rgb(165, 166, 234);" data-hasqtip="6929"></path>

  <path data-id="spa-e8ecd497-15e0-4bc0-b354-d5f1fc10156c" d="M27255-94309l-26-135l604-116l56-11l1942-373l501 2602h0l-2603 500z" data-description="3" id="CL.01.02" data-area="7,04" data-hasqtip="6930" style="fill: rgb(165, 166, 234);"></path>

  <path data-id="spa-b10de914-e44e-4659-8dd9-a8a6f69bef7b" d="M22912-60431l3261 624l-19 98l123 23l-133 698l-3384-647z" data-description="-" id="DS.01.08" data-area="2,82" data-hasqtip="6931"></path>

  <path data-id="spa-46424d72-05a3-46e7-886f-5339e34cf5dd" d="M12727-101646l19 1l19-610l4339 136l-98 3123l-425-13l1-28l-1310-41l-2286-72l-337-10z" data-description="-" id="CS.01.05" data-area="13,5" data-hasqtip="6932"></path>

  <path data-id="spa-cd60c5ce-37df-4d64-9df0-2ba12a251e86" d="M-31119-100357v-2128h100v-1206l985 31v3303z" data-description="-" id="BS.01.04" data-area="3,46" data-hasqtip="6933"></path>

  <path data-id="spa-d2e28ec0-33b0-44e1-bdb8-b016dff02be1" d="M13021-83303l4050-1112l-111-403l-238 66l-7-24l-3811 1046z" data-description="3" id="AS.01.03" data-area="1,85" data-hasqtip="6934" style="fill: rgb(165, 166, 234);"></path>

  <path data-id="spa-9a3e4bba-68c3-4cee-99e0-28a24f897161" d="M17756-79089l1381-379l-62-227l-1382 380z" data-description="3" id="AS.01.02" data-area="0,22" data-hasqtip="6935" style="fill: rgb(165, 166, 234);"></path>

  <path data-id="spa-5733610b-bbb3-4d5f-8dca-9c2b5e2dfa7f" d="M-31034-85741v-91v-2559h-231h-3069v2650z" data-description="1" id="BL.01.01" data-area="8,75" data-hasqtip="6936" style="fill: rgb(175, 180, 28);"></path>

  <path data-id="spa-8f2949af-7891-41c3-8f12-2394efa03155" d="M18327-88593l1208-232l-182-943l-1207 232z" data-description="3" id="AO.01.04" data-area="1,18" style="fill: rgb(165, 166, 234);" data-hasqtip="6937"></path>

  <path data-id="spa-d3179394-3433-46f1-836b-5840b31199a2" d="M-2579-30304l-259-415l-4-11l10-489l572-185l27 370l196 86v3l-124 174l167 331zm1543-427l9-489l-3-11l-259-415l-586 136l167 331l-124 175l1 2l196 86l27 370zm2642-3880l-694-2525l-227-162l-1257-4580l2311 183l180 15l35 23l6361 506l2857 10405l6132 468l4183-21875l-3369-644l1399-7316l721 138l2023 387l340 65l8442 1614l625-3266l-98-18l155-811l98 19l61-321l516-2700l75 14l-10 54l4035 772l422 3039l-7098 37121l226 43l-27 138l-57481-4574l-97-8l-30-3l-6087-484l-94-7v-535l-1085-2674h-258v-1h-2698l-1177 2832v2164h145v255h-228h-5891h-407v-11510h6380v629h5735v-2064l6348 505l49 4l100 8l12104 963l-456 2384l12146 967l30 2l20 2zm6306 685l434-119l119 435l-435 118" data-description="3" id="AK.01.07" data-area="1148" style="fill: rgb(165, 166, 234);" data-hasqtip="6938" class=""></path>

  <path data-id="spa-2e70714c-e99a-4418-97d2-c6ab86b77d96" d="M-34586-38806v-1112v-1075v-1290v-1491h527v-1232h-17h-970h-1428v575v1250v3425h-2215v950z" data-description="-" id="WI.01.02" data-area="14,5" data-hasqtip="6939"></path>

  <path data-id="spa-55f9f165-3944-4a1c-9d72-0be263ca17cb" d="M-622-51701l3816-1048l1804 6569l-420 115l120 434l419-115l1168 4253l-4196-334z" data-description="4" id="AT.01.01" data-area="43,2" style="fill: rgb(194, 60, 183);" data-hasqtip="6940"></path>

  <path data-id="spa-e37b140b-4f00-4aac-946a-c027c9c62af8" d="M22230-90784l2553-491l13-2l221-43l12-2l2553-491l-463-2406l-2553 491l-12 2l-221 43l-12 2l-1886 363l-81 15l-587 113z" data-description="3" id="CL.01.01" data-area="13,4" style="fill: rgb(165, 166, 234);" data-hasqtip="6941"></path>

  <path data-id="spa-47cecd95-f824-464e-87d0-4817b861461a" d="M12247-81875l964-264l1018 3710l73 263l-965 264z" data-description="-" id="AS.01.12" data-area="4,11" data-hasqtip="6942"></path>

  <path data-id="spa-c8dd23fe-5649-4542-85cf-77de170e5e36" d="M-32559-66266v-2500h-850h-1250h-1450h-1250h-850v1v2499h824h128h222z" data-description="-" id="EL.01.03" data-area="14,1" style="fill: rgb(251, 5, 5);" data-hasqtip="6943"></path>

  <path data-id="spa-b9d0b200-f687-4d97-9b18-d1b0c8ef8c9a" d="M30572-62097l931 178h2l-132 688l-933-178z" data-description="-" id="DS.01.03" data-area="0,64" data-hasqtip="6944"></path>

  <path data-id="spa-daf85755-677c-4ee7-bf55-2f37f7f59603" d="M23647-83419l2553-491l29 147l12-2l-26-137l221-43l26 137l12-2l-28-147l2480-477l28 147l12-2l-26-138l221-42l26 137l12-2l-28-147l2577-496h0l-151-786l-2577 496l20 108l-245 47l-21-108l-2480 477l21 108l-245 48l-21-108l-2465 474l-88 17l20 105l2 13z" data-description="-" id="CS.01.01" data-area="6,56" data-hasqtip="6945"></path>

  <path data-id="spa-3960693c-de62-41ca-8049-7db5ef2e88b2" d="M-36159-91616v-1775h-450v1775z" data-description="luchtschacht" id="BS.01.10" data-area="0,80" data-hasqtip="6946"></path>

  <path data-id="spa-e0928be1-dd20-4078-9156-8889b94092f3" d="M-34976-54326v-137v-63v-1v-599h-3113v800" data-description="-" id="ES.01.03" data-area="2,28" data-hasqtip="6947"></path>

  <path data-id="spa-4b43d0b0-f2e9-4a94-8759-c90f53767905" d="M11143-39425l957 76l97-1226l-956-76z" data-description="3" id="AO.01.19" data-area="1,18" style="fill: rgb(165, 166, 234);" data-hasqtip="6948"></path>

  <path data-id="spa-60f11411-63c7-4a50-ad71-4650deec7bea" d="M-34059-48626v-3000h-150h-136h-20h-1100h-20h-3525h-322h-128h-1197h-3118h-1384v-121h-1300v3199h250v-78z" data-description="3" id="EV.01.01" data-area="37,4" data-hasqtip="6949" style="fill: rgb(165, 166, 234);" class=""></path>

  <path data-id="spa-620faefc-91a9-4ba2-be27-6998ea7b2c89" d="M-32336-62299v-1205h-650v-635h-2640v920v920z" data-description="3" id="EO.01.03" data-area="5,64" style="fill: rgb(165, 166, 234);" data-hasqtip="6950"></path>

  <path data-id="spa-8a3d897c-2520-49a3-9914-15a24866ea74" d="M21704-93452l16 17h2l721-139l-10-49l-651-3386l-21-109l-112-4l5-170l-844-26l749 3893z" data-description="-" id="CS.01.02" data-area="3,42" data-hasqtip="6951"></path>

  <path data-id="spa-a9a318d9-8d20-4238-abb2-4d13212c443f" d="M-8825-58974v-138l22-458l-5-17l-273-415l-576 139l166 330l-123 175l1 3l195 87l20 294h-74h-19v-25h-390l-63-126l123-174l-1-3l-195-87l-26-369l-566 174l-21 458l-2 39l2 7v82h-44v25h-1893v-25h-1010l-118-430l-111 30l-1434-5240l-348-1272l-1480-5409l-53-193l-204 12l13 46h-4457v135v2233h-4967l-13-1410l16547-4560l4395 16072zm-324 0l80-25v25zm-12548 17v-151h7761l39 140zm8822-11116l-167-331l124-175v-2l-196-86l-27-370l-572 184l-10 490l4 11l259 415zm958-291l9-489l-3-12l-259-414l-586 135l167 331l-124 175l1 2l196 86l27 370z" data-description="3" id="AK.01.04" data-area="150" data-hasqtip="6952" style="fill: rgb(165, 166, 234);" class=""></path>

  <path data-id="spa-4951b7e3-5d09-4e1a-9345-d2f022fbaa39" d="M-670-51875l19450-5339l594-3110l1365-7134l-239 65l-119-434l452-124l536-2802l-25313 6949zm3577-1977l-119-434l-434 119l119 434zm-2223-8099l-119-434l-434 120l119 434zm9214-2262l576-140l-167-330l123-174l-1-4l-195-86l-27-369l-565 176l-22 496l4 17zm861-880l-166-330l575-140l274 415l5 17l-22 496l-566 176l-27-369l-194-87l-1-3zm2274 8463l-434 119l-119-434l434-119z" data-description="1" id="AK.01.09" data-area="285" data-hasqtip="6953" style="fill: rgb(175, 180, 28);"></path>

  <path data-id="spa-fac00492-5741-47f8-a3f0-fc42dc1c9668" d="M-2501-91313v-450h-450v450v2h-7949v-450h-450v450h-342h-2951h-87l-114 1h-4456v-450h-450v450h-8034v-412h-550v250h-1h-192h-1060h-290h-17v-12532l35618 1119l286 9l-32 182l173 111l1425 918l25-38l-1426-918l75-247l6174 194l-154 4888l3024 95l7 1l146 4l3773 119l138 4l138 4l1156 37h3l1067 5546h-2245l-584-3040h-4106l574 2980h-1053h-11h-3622l142 516h-4918v-450h-450v450h-7950" data-description="3" id="AK.01.06" data-area="537" style="fill: rgb(165, 166, 234);" data-hasqtip="6954" class=""></path>

  <path data-id="spa-4a549836-3f83-4399-95b3-440a693f85f6" d="M12140-39346l957 77l97-1226l-957-77z" data-description="3" id="AO.01.20" data-area="1,18" style="fill: rgb(165, 166, 234);" data-hasqtip="6955"></path>

  <path data-id="spa-9499fde5-dd4d-4300-8c67-6525087bc1a3" d="M-31284-88691v-11535h-3000v2909v146v7v6965l-60 8v1v1499z" data-description="3" id="BV.01.01" data-area="34,7" data-hasqtip="6956" style="fill: rgb(165, 166, 234);"></path>

  <path data-id="spa-948955b3-c58d-4fb5-b4a4-9d3dee8cf2e5" d="M-37034-62286v-3680h-225v1v3679z" data-description="-" id="ES.01.09" data-area="0,83" data-hasqtip="6957"></path>

  <path data-id="spa-11c860f1-3261-43fc-9168-7621c634fabb" d="M-26891-74692l15470-4247l-1996-7270l-1383-5038h-4500h-450h-8032l-2 138h-550v-120h-192h-1060h-283v5712v1v2912v92v82v1247v2060v1053v40h-15v106v3978l1551-426v-493h550v342zm-892-8497h-550v550h550m8524-50v-450h-450v450z" data-description="2" id="AK.01.05" data-area="253" data-hasqtip="6958" style="fill: rgb(44, 167, 30);"></path>

  <path data-id="spa-72f93b42-4701-4c9c-809f-ef63c238d491" d="M-36015-51939h-2856v-1975h2856v1220z" data-description="3" id="EO.01.06" data-area="5,64" data-hasqtip="6959" style="fill: rgb(165, 166, 234);"></path>

  <path data-id="spa-aa0c2aba-5b1f-4c93-a856-9340f7595f61" d="M-32324-63641v-1050h-525v1050z" data-description="-" id="ES.01.08" data-area="0,55" data-hasqtip="6960"></path>

  <path data-id="spa-b029db7c-0109-401a-bba8-d98659afba9d" d="M-34424-94166v-2865h-2185v2865z" data-description="-" id="BS.01.01" data-area="5,77" data-hasqtip="6961"></path>

  <path data-id="spa-94e9ff74-5a2c-4bc8-9aab-0f9f0611306b" d="M-32164-69066v-3900h-1245h-1250h-1450h-1250h-975h-975h-1250h-1525h-1250h-975h-195v3900h1245h1250h1450h1250h849h253h848h1250h1450h1250h849z" data-description="3" id="EH.01.03" data-area="48,1" style="fill: rgb(165, 166, 234);" data-hasqtip="6962"></path>

  <path data-id="spa-b3bef38c-9ed4-451c-96b9-ceee481b4771" d="M23189-61294l273-1424l65-344l3153 603l-60 317l-400 2089l-3153-603z" data-description="1" id="DL.01.01" data-area="7,86" style="fill: rgb(175, 180, 28);" data-hasqtip="6963"></path>

  <path data-id="spa-9863e494-2727-4db1-8ba0-0896ca4c11d0" d="M18156-79585l-326-1186l-926 254l326 1186z" data-description="3" id="AO.01.08" data-area="1,18" style="fill: rgb(165, 166, 234);" data-hasqtip="6964"></path>

  <path data-id="spa-6f963569-0bea-4a9b-b8a6-48d8e26c8f5d" d="M12569-85100l34-9l-21-76l-1044-3803l-19-68l116-32l-724-2629h2925v340h480v-340h969l1313 6828l-3693 1014zm1789-4639l-119-434l-434 119l119 434z" data-description="3" id="AU.01.01" data-area="30,5" data-hasqtip="6965" style="fill: rgb(165, 166, 234);"></path>

  <path data-id="spa-8ee2c475-c442-4e20-bd54-0e450cd12b2e" d="M-40811-51928h-2796v-3196h2796z" data-description="4" id="EK.01.02" data-area="8,94" data-hasqtip="6966" style="fill: rgb(194, 60, 183);"></path>

  <path data-id="spa-7f722757-c584-4664-86d2-50626a5ad922" d="M-34284-97171v-3055h-2490v181h615v550h-615v2324z" data-description="3" id="BH.01.03" data-area="7,27" data-hasqtip="6967" style="fill: rgb(165, 166, 234);"></path>

  <path data-id="spa-fad4fe2a-d130-4a2c-8d18-0c3826466e5c" d="M14990-94710h3826l543 2826h-3826z" data-description="4" id="AK.01.11" data-area="10,8" data-hasqtip="6968" style="fill: rgb(194, 60, 183);"></path>

  <path data-id="spa-38958f98-86f3-4d9b-bc06-1341d293aab9" d="M20238-59975l2023 387l34-177l340 65l-6 6l7 2l119-811l28 5l15-82l146-761l272-1424l101-528l35-183l43-222h0l66-346l206-1079l333-1742l48-248l563-2945l84-443l390-2036l26-139l8447 1615l-13 69h0l-79 415l1506-290l294-57l-757-3935l-233 45l-1887-9810l-552 106l-32-164l-8396 1614l-753-3913l59-11l-1-7l-664-3452l-2-8l-59 12l-267-1390h-175h-1948h-122l1158 6019l-15 3l2 8l-1233 338l436 1586l1123-308l799 4152l-3954 1085l43 159l-434 119l-43-159l-4123 1132h0l-4894 1344l-8 435l-98 27l-501-212l-117-51l-334 91l-75 105l-321 440l-97 27l-233-372l-9015 2475l44 161l-434 119l-44-161l-3571 980l1049 3822l1274 4536l25739-7066l-2049 10713l720 138zm9242-14185l-146-530l530-146l146 531zm-1456-7378l-145-530l-531 146l146 530z" data-description="3" id="AK.01.10" data-area="426" style="fill: rgb(165, 166, 234);" data-hasqtip="6969" class=""></path>

  <path data-id="spa-7fa70ee9-b6bb-44b7-bef4-3a54bdae01c9" d="M13861-30708l1332 102l113-593l1243 94l492-2575l-2163-414l-127 661l-356-68z" data-description="4" id="DK.01.03" data-area="7,28" data-hasqtip="6970" style="fill: rgb(194, 60, 183);"></path>

  <path data-id="spa-cb4f7789-75df-42c2-9afb-21f5fa586d6c" d="M15525-39344l3114 596l-280 1461l-3113-595z" data-description="3" id="DH.01.05" data-area="4,72" data-hasqtip="6971" style="fill: rgb(165, 166, 234);"></path>

  <path data-id="spa-32aa65ce-3c55-4ae7-9995-213a5a5a7b31" d="M-34586-38806v-1112v-1075v-1290v-1491h527v-1232h-17h-970h-1428v575v1250v3425h-2215v950z" data-hasqtip="6972" class=""></path>

  <path data-id="spa-0ee33c5e-5c7f-46e8-b97e-6f46bfde7ee0" d="M23731-63863l1361 260l563-2947l-164-31h0l-1071-205h0l-125-24l-333 1744l-207 1079z" data-description="3" id="DH.01.02" data-area="4,16" data-hasqtip="6973" style="fill: rgb(165, 166, 234);"></path>

  <path data-id="spa-46106c5b-97b5-4c9a-9e21-4cc90157376d" d="M21006-84207l-1181 324l-436-1586l1291-354l-2-8l15-3l-1155-6003h122h1887h175l267 1390l59-12l2 8l664 3452l1 7l-59 11l753 3913l-2106 405z" data-description="3" id="AH.01.07" data-area="21,9" data-hasqtip="6974" style="fill: rgb(165, 166, 234);"></path>

  <path data-id="spa-bb70ad69-d58d-4d02-9804-5c87469393ef" d="M-37384-62106v-118v-3742h-950h-800v3860z" data-description="-" id="ET.01.04" data-area="6,76" data-hasqtip="6975"></path>

  <path data-id="spa-abbf9fae-922a-4d51-a551-0070f707130b" d="M26834-63270l248 48l723 138l2851 545l933 178l517-2701l47-245l-157-30l-1299-249l-4865-930l-563 2947z" data-description="3" id="DV.01.02" data-area="19,3" data-hasqtip="6976" style="fill: rgb(165, 166, 234);"></path>

  <path data-id="spa-f9faa5b7-3247-46c2-9a03-5a16c7ae7a96" d="M-43774-51926v-2100h-2685v2279h1300v-179z" data-description="3" id="EH.01.02" data-area="5,70" data-hasqtip="6977" style="fill: rgb(165, 166, 234);"></path>

  <path data-id="spa-214196c6-f394-4382-b6b1-3cb22dda8f83" d="M-30049-77994v-1053h60v-2060h-60v-1239h-6725v-3103v-3235l60-7v-2v-1497v-1h-60v-6980v-146v-2178v-550v-36v-160v-3765v-6l447 14l203 6l4655 147l290 9v15l166 5l1-15l500 16l9-299l-15881-500l-75-2v28632l1950-233v-35l8-1l-1-15l12335-1473l137-16l1902-228zm-14534-5195h-550v550h550zm0-8400h-550v550h550m0-8950h-550v550h550z" data-description="3" id="AK.01.02" data-area="303" style="fill: rgb(165, 166, 234);" data-hasqtip="6978"></path>

  <path data-id="spa-d06de31c-d7f0-49b9-a862-24b2ff759662" d="M32471-65374l587-3069l42-221l355-1855l1527-294l-10-54l294-57l1291 6713l-4082-781l-75-14z" data-description="vide" id="AI.01.04" data-area="18,2" data-hasqtip="6979"></path>

  <path data-id="spa-59243939-5733-4c26-bb52-b72199560037" d="M-34496-24544v-3076h-1203v-396h150v246h1053v-1446l-992-2444h-2030l-1021 2457v2089v255v2315z" data-description="-" id="AV.01.01" data-area="26,1" data-hasqtip="6980" class="" aria-describedby="qtip-6980"></path>

</svg>